<?xml version="1.0" encoding="iso-8859-1"?>
<!-- Generator: Adobe Illustrator 19.0.0, SVG Export Plug-In . SVG Version: 6.00 Build 0)  -->
<svg version="1.1" id="Capa_1" xmlns="http://www.w3.org/2000/svg" xmlns:xlink="http://www.w3.org/1999/xlink" x="0px" y="0px"
	 viewBox="0 0 512 512" style="enable-background:new 0 0 512 512;" xml:space="preserve">
<g>
	<g>
		<path d="M460.8,0H51.2c-4.71,0-8.533,3.823-8.533,8.533V486.4c0,4.719,3.823,8.533,8.533,8.533h409.6
			c4.719,0,8.533-3.814,8.533-8.533V8.533C469.333,3.823,465.519,0,460.8,0z M452.267,477.867H59.733v-460.8h392.533V477.867z"/>
	</g>
</g>
<g>
	<g>
		<path d="M418.133,230.4H93.867c-4.71,0-8.533,3.823-8.533,8.533v204.8c0,4.719,3.823,8.533,8.533,8.533h324.267
			c4.719,0,8.533-3.814,8.533-8.533v-204.8C426.667,234.223,422.852,230.4,418.133,230.4z M409.6,435.2H102.4V247.467h307.2V435.2z"
			/>
	</g>
</g>
<g>
	<g>
		<rect x="51.2" y="187.733" width="409.6" height="17.067"/>
	</g>
</g>
<g>
	<g>
		<rect x="51.2" y="68.267" width="409.6" height="17.067"/>
	</g>
</g>
<g>
	<g>
		<path d="M213.333,102.4c-18.825,0-34.133,15.309-34.133,34.133s15.309,34.133,34.133,34.133c18.825,0,34.133-15.309,34.133-34.133
			C247.467,117.709,232.158,102.4,213.333,102.4z M213.333,153.6c-9.412,0-17.067-7.654-17.067-17.067
			c0-9.412,7.654-17.067,17.067-17.067c9.412,0,17.067,7.654,17.067,17.067C230.4,145.946,222.746,153.6,213.333,153.6z"/>
	</g>
</g>
<g>
	<g>
		<path d="M128,102.4c-18.825,0-34.133,15.309-34.133,34.133s15.309,34.133,34.133,34.133s34.133-15.309,34.133-34.133
			C162.133,117.709,146.825,102.4,128,102.4z M128,153.6c-9.412,0-17.067-7.654-17.067-17.067c0-9.412,7.654-17.067,17.067-17.067
			c9.412,0,17.067,7.654,17.067,17.067C145.067,145.946,137.412,153.6,128,153.6z"/>
	</g>
</g>
<g>
	<g>
		<path d="M384,102.4c-18.825,0-34.133,15.309-34.133,34.133s15.309,34.133,34.133,34.133c18.825,0,34.133-15.309,34.133-34.133
			C418.133,117.709,402.825,102.4,384,102.4z M384,153.6c-9.412,0-17.067-7.654-17.067-17.067c0-9.412,7.654-17.067,17.067-17.067
			c9.412,0,17.067,7.654,17.067,17.067C401.067,145.946,393.412,153.6,384,153.6z"/>
	</g>
</g>
<g>
	<g>
		<path d="M298.667,102.4c-18.825,0-34.133,15.309-34.133,34.133s15.309,34.133,34.133,34.133s34.133-15.309,34.133-34.133
			C332.8,117.709,317.491,102.4,298.667,102.4z M298.667,153.6c-9.412,0-17.067-7.654-17.067-17.067
			c0-9.412,7.654-17.067,17.067-17.067s17.067,7.654,17.067,17.067C315.733,145.946,308.079,153.6,298.667,153.6z"/>
	</g>
</g>
<g>
	<g>
		<rect x="119.467" y="110.933" width="17.067" height="51.2"/>
	</g>
</g>
<g>
	<g>
		<rect x="204.8" y="110.933" width="17.067" height="51.2"/>
	</g>
</g>
<g>
	<g>
		<rect x="290.133" y="110.933" width="17.067" height="51.2"/>
	</g>
</g>
<g>
	<g>
		<rect x="375.467" y="110.933" width="17.067" height="51.2"/>
	</g>
</g>
<g>
	<g>
		<path d="M93.867,34.133c-4.71,0-8.533,3.823-8.533,8.533V76.8H102.4V51.2h17.067V34.133H93.867z"/>
	</g>
</g>
<g>
	<g>
		<path d="M213.333,34.133h-25.6V51.2H204.8v25.6h17.067V42.667C221.867,37.956,218.044,34.133,213.333,34.133z"/>
	</g>
</g>
<g>
	<g>
		<rect x="145.067" y="34.133" width="17.067" height="42.667"/>
	</g>
</g>
<g>
	<g>
		<path d="M298.667,34.133c-4.719,0-8.533,3.823-8.533,8.533V76.8H307.2V51.2h17.067V34.133H298.667z"/>
	</g>
</g>
<g>
	<g>
		<path d="M418.133,34.133h-25.6V51.2H409.6v25.6h17.067V42.667C426.667,37.956,422.852,34.133,418.133,34.133z"/>
	</g>
</g>
<g>
	<g>
		<rect x="349.867" y="34.133" width="17.067" height="42.667"/>
	</g>
</g>
<g>
	<g>
		
			<rect x="195.088" y="305.067" transform="matrix(0.7071 -0.7071 0.7071 0.7071 -154.8889 253.2656)" width="66.372" height="17.066"/>
	</g>
</g>
<g>
	<g>
		
			<rect x="194.77" y="326.402" transform="matrix(0.7071 -0.7071 0.7071 0.7071 -161.2319 280.6226)" width="126.71" height="17.067"/>
	</g>
</g>
<g>
	<g>
		
			<rect x="255.687" y="349.876" transform="matrix(0.7071 -0.7071 0.7071 0.7071 -169.7092 307.1038)" width="60.33" height="17.067"/>
	</g>
</g>
<g>
	<g>
		<rect x="68.267" y="477.867" width="17.067" height="34.133"/>
	</g>
</g>
<g>
	<g>
		<rect x="426.667" y="486.4" width="17.067" height="25.6"/>
	</g>
</g>
<g>
</g>
<g>
</g>
<g>
</g>
<g>
</g>
<g>
</g>
<g>
</g>
<g>
</g>
<g>
</g>
<g>
</g>
<g>
</g>
<g>
</g>
<g>
</g>
<g>
</g>
<g>
</g>
<g>
</g>
</svg>
