<?xml version="1.0" encoding="iso-8859-1"?>
<!-- Generator: Adobe Illustrator 19.0.0, SVG Export Plug-In . SVG Version: 6.00 Build 0)  -->
<svg version="1.1" id="Capa_1" xmlns="http://www.w3.org/2000/svg" xmlns:xlink="http://www.w3.org/1999/xlink" x="0px" y="0px"
	 viewBox="0 0 311.6 311.6" style="enable-background:new 0 0 311.6 311.6;" xml:space="preserve">
<g>
	<g>
		<path d="M129.601,285.6c0,14.4,11.6,26,26,26c14.4,0,26-11.6,26-26H129.601z"/>
	</g>
</g>
<g>
	<g>
		<path d="M155.601,0c-54.8,0-99.6,44.8-99.2,99.6c0,21.2,6.8,41.6,19.2,58.8l-0.4,0.4l5.2,6c0,0.4,21.6,24.4,26,57.6
			c-2.8,3.6-4.4,8-4.4,12.4c0,11.2,10.4,20.8,23.2,20.8h60.8c12.8,0,23.6-9.2,23.2-20.8c0-4-0.8-7.2-2.8-10.4c2-13.6,8-41.2,22-57.2
			l0.8-0.8c0.4-0.4,1.2-1.2,1.6-1.6c0.4-0.4,0.8-0.8,1.2-1.2l-5.6-4.4l6,4l0.4-0.8c0.4,0,0.4-0.4,0.8-0.8c14-18,21.6-39.2,21.6-62
			C255.201,44.8,210.401,0,155.601,0z M222.401,152.8l-0.8,0.8l5.6,4.4l-6-4l-0.4,0.8c-0.4,0.8-1.2,1.6-2,2.4l-0.8,0.8
			c-17.2,19.6-23.6,50.4-26,67.2l-0.4,3.2l2.8,2.8c1.2,1.2,1.6,2.4,1.6,3.6c0,4-4.4,7.2-9.6,7.2h-60.8c-5.2,0-9.6-3.6-9.6-7.2
			c0-2.4,1.6-4,2.4-4.8l2.8-2.4l-0.4-3.6c-3.2-28.8-17.6-52-25.2-62.4l-4.8-6.8c-13.6-15.2-20.8-35.2-20.8-55.6
			c0-47.2,38.4-85.6,85.6-85.6s85.6,38.4,85.6,85.6C241.201,118.8,234.801,137.6,222.401,152.8z"/>
	</g>
</g>
<g>
	<g>
		<path d="M209.201,267.2c0-11.2-10.4-20.8-23.2-20.8h-60.8c-12.8,0-23.2,9.2-23.2,20.8c0,11.2,10.4,20.8,23.2,20.8h60.8
			C198.801,288,209.601,278.8,209.201,267.2z M186.001,274h-60.8c-5.2,0-9.6-3.2-9.6-6.8c0-4,4.4-7.2,9.6-7.2h60.8
			c5.2,0,9.6,3.6,9.6,7.2C195.601,270.8,191.201,274,186.001,274z"/>
	</g>
</g>
<g>
	<g>
		<path d="M227.601,119.2c-0.8-68.4-58.8-90.4-59.2-90.8c-3.6-1.6-7.6,0.4-8.8,4c-1.6,3.6,0.4,7.6,4,8.8c2,0.8,49.2,19.6,50.4,78.4
			c0,3.6,2.8,6.8,6.8,6.8C224.801,126,228.001,122.8,227.601,119.2z"/>
	</g>
</g>
<g>
</g>
<g>
</g>
<g>
</g>
<g>
</g>
<g>
</g>
<g>
</g>
<g>
</g>
<g>
</g>
<g>
</g>
<g>
</g>
<g>
</g>
<g>
</g>
<g>
</g>
<g>
</g>
<g>
</g>
</svg>
