<?xml version="1.0" encoding="iso-8859-1"?>
<!-- Generator: Adobe Illustrator 19.0.0, SVG Export Plug-In . SVG Version: 6.00 Build 0)  -->
<svg version="1.1" id="Capa_1" xmlns="http://www.w3.org/2000/svg" xmlns:xlink="http://www.w3.org/1999/xlink" x="0px" y="0px"
	 viewBox="0 0 512 512" style="enable-background:new 0 0 512 512;" xml:space="preserve">
<g>
	<g>
		<path d="M104.151,356.055l-14.699-22.049c-3.064-4.6-10.678-4.6-13.741,0l-14.691,22.041c-3.857,5.748-5.236,12.668-3.89,19.456
			c1.346,6.788,5.26,12.66,11.025,16.516c4.294,2.849,8.968,4.6,14.443,4.369c14.286,0,25.914-11.619,25.93-25.914
			C108.527,365.32,107.008,360.332,104.151,356.055z M82.597,379.871c-0.008,0-0.008,0-0.008,0c-0.008,0-0.008,0-0.008,0
			c-1.875,0-3.691-0.545-5.252-1.586c-2.089-1.396-3.51-3.534-3.997-5.995s0.017-4.971,1.42-7.077l7.829-11.743l7.837,11.743
			c1.041,1.569,1.594,3.378,1.594,5.244C92.003,375.651,87.783,379.871,82.597,379.871z"/>
	</g>
</g>
<g>
	<g>
		<path d="M186.731,356.055l-14.699-22.049c-3.064-4.6-10.678-4.6-13.741,0l-14.691,22.041c-3.857,5.748-5.236,12.668-3.89,19.456
			c1.346,6.788,5.26,12.66,11.025,16.516c4.286,2.849,9.274,4.369,14.419,4.369c0.008,0,0.017,0,0.025,0
			c14.286,0,25.914-11.619,25.93-25.914C191.108,365.32,189.589,360.332,186.731,356.055z M165.178,379.871
			c-0.008,0-0.008,0-0.008,0c-0.008,0-0.008,0-0.008,0c-1.875,0-3.691-0.545-5.252-1.586c-2.089-1.396-3.51-3.534-3.997-5.995
			c-0.487-2.461,0.017-4.971,1.42-7.077l7.829-11.743l7.837,11.743c1.041,1.569,1.594,3.378,1.594,5.244
			C174.584,375.651,170.364,379.871,165.178,379.871z"/>
	</g>
</g>
<g>
	<g>
		<path d="M269.312,356.055l-14.699-22.049c-3.064-4.6-10.678-4.6-13.741,0l-14.691,22.041c-3.857,5.748-5.236,12.668-3.89,19.456
			c1.346,6.788,5.26,12.66,11.024,16.516c4.286,2.849,9.274,4.369,14.419,4.369c0.008,0,0.016,0,0.025,0
			c6.912,0,13.419-2.692,18.308-7.573c4.905-4.897,7.606-11.404,7.614-18.341C273.68,365.32,272.169,360.341,269.312,356.055z
			 M254.406,377.121c-1.776,1.775-4.137,2.75-6.648,2.75c-0.008,0-0.008,0-0.008,0c-0.008,0-0.008,0-0.008,0
			c-1.875,0-3.691-0.545-5.252-1.586c-2.089-1.396-3.51-3.534-3.997-5.995c-0.487-2.461,0.017-4.971,1.42-7.077l7.829-11.743
			l7.829,11.743c1.049,1.561,1.594,3.378,1.594,5.244C257.164,372.975,256.182,375.337,254.406,377.121z"/>
	</g>
</g>
<g>
	<g>
		<path d="M280.774,412.903h-41.29v16.516h33.032v33.032h16.516v-41.29C289.032,416.595,285.341,412.903,280.774,412.903z"/>
	</g>
</g>
<g>
	<g>
		<path d="M49.548,412.903c-4.558,0-8.258,3.691-8.258,8.258v41.29h16.516v-33.032h33.032v-16.516H49.548z"/>
	</g>
</g>
<g>
	<g>
		<rect x="156.903" y="412.903" width="16.516" height="49.548"/>
	</g>
</g>
<g>
	<g>
		<path d="M305.548,454.194H24.774c-4.558,0-8.258,3.691-8.258,8.258v33.032c0,4.567,3.7,8.258,8.258,8.258h280.774
			c4.567,0,8.258-3.691,8.258-8.258v-33.032C313.806,457.885,310.115,454.194,305.548,454.194z M297.29,487.226H33.032V470.71
			H297.29V487.226z"/>
	</g>
</g>
<g>
	<g>
		<path d="M322.065,198.194H8.258c-4.558,0-8.258,3.7-8.258,8.258v39.639c0,37.335,30.381,67.716,67.716,67.716h194.89
			c37.335,0,67.716-30.381,67.716-67.716v-39.639C330.323,201.893,326.631,198.194,322.065,198.194z M313.806,246.09
			c0,28.234-22.966,51.2-51.2,51.2H67.716c-28.234,0-51.2-22.966-51.2-51.2V214.71h297.29V246.09z"/>
	</g>
</g>
<g>
	<g>
		<path d="M487.226,165.161H380.862c-8.712,0.091-16.822,4.839-21.099,12.238l-17.573,29.052h-20.125v16.516h24.774
			c2.89,0,5.574-1.511,7.061-3.989l20.075-33.173c1.453-2.519,4.154-4.096,6.97-4.129h106.281c4.558,0,8.258,3.708,8.258,8.258
			c0,4.55-3.7,8.258-8.258,8.258h-94.39c-5.805,0-11.256,3.105-14.179,8.052l-19.968,33.239h-36.625V256h41.29
			c2.899,0,5.591-1.519,7.077-4.005l22.404-37.285h94.39c13.659,0,24.774-11.115,24.774-24.774S500.885,165.161,487.226,165.161z"/>
	</g>
</g>
<g>
	<g>
		<path d="M140.387,206.452v57.806c0,4.558-3.708,8.258-8.258,8.258s-8.258-3.7-8.258-8.258v-16.516
			c0-13.659-11.115-24.774-24.774-24.774c-13.659,0-24.774,11.115-24.774,24.774c0,4.55-3.708,8.258-8.754,8.258
			c-4.278,0-7.763-3.485-7.763-7.763v-41.786H41.29v41.786c0,13.386,10.892,24.279,24.774,24.279
			c13.659,0,24.774-11.115,24.774-24.774c0-4.55,3.708-8.258,8.258-8.258c4.55,0,8.258,3.708,8.258,8.258v16.516
			c0,13.659,11.115,24.774,24.774,24.774s24.774-11.115,24.774-24.774v-57.806H140.387z"/>
	</g>
</g>
<g>
	<g>
		<path d="M74.323,148.645h16.516c0-9.109,7.408-16.516,16.516-16.516v-16.516C89.138,115.613,74.323,130.428,74.323,148.645z"/>
	</g>
</g>
<g>
	<g>
		<path d="M198.194,107.355c-13.659,0-24.774,11.115-24.774,24.774s11.115,24.774,24.774,24.774s24.774-11.115,24.774-24.774
			S211.852,107.355,198.194,107.355z M198.194,140.387c-4.55,0-8.258-3.708-8.258-8.258c0-4.55,3.708-8.258,8.258-8.258
			s8.258,3.708,8.258,8.258C206.452,136.679,202.744,140.387,198.194,140.387z"/>
	</g>
</g>
<g>
	<g>
		<path d="M99.097,49.548c-18.217,0-33.032,14.815-33.032,33.032h16.516c0-9.109,7.408-16.516,16.516-16.516
			c9.109,0,16.516,7.407,16.516,16.516h16.516C132.129,64.363,117.314,49.548,99.097,49.548z"/>
	</g>
</g>
<g>
	<g>
		<path d="M280.774,99.097c-18.217,0-33.032,14.815-33.032,33.032v8.258c0,4.558,3.7,8.258,8.258,8.258h49.548
			c4.567,0,8.258-3.7,8.258-8.258v-8.258C313.806,113.912,298.991,99.097,280.774,99.097z M264.258,132.129
			c0-9.109,7.407-16.516,16.516-16.516s16.516,7.407,16.516,16.516H264.258z"/>
	</g>
</g>
<g>
	<g>
		<path d="M272.516,140.387v16.516c0,4.55-3.7,8.258-8.258,8.258v16.516c13.659,0,24.774-11.115,24.774-24.774v-16.516H272.516z"/>
	</g>
</g>
<g>
	<g>
		<path d="M140.387,148.645h-16.516c0,18.217,14.815,33.032,33.032,33.032v-16.516C147.795,165.161,140.387,157.754,140.387,148.645
			z"/>
	</g>
</g>
<g>
	<g>
		<path d="M165.161,8.258c-13.659,0-24.774,11.115-24.774,24.774c0,13.659,11.115,24.774,24.774,24.774
			c13.659,0,24.774-11.115,24.774-24.774C189.935,19.373,178.82,8.258,165.161,8.258z M165.161,41.29
			c-4.55,0-8.258-3.708-8.258-8.258c0-4.55,3.708-8.258,8.258-8.258c4.55,0,8.258,3.708,8.258,8.258
			C173.419,37.582,169.711,41.29,165.161,41.29z"/>
	</g>
</g>
<g>
	<g>
		<path d="M49.548,107.355c-18.217,0-33.032,14.815-33.032,33.032s14.815,33.032,33.032,33.032c4.558,0,8.258-3.7,8.258-8.258
			v-49.548C57.806,111.054,54.107,107.355,49.548,107.355z M41.29,154.682c-4.93-2.857-8.258-8.192-8.258-14.295
			s3.328-11.437,8.258-14.295V154.682z"/>
	</g>
</g>
<g>
	<g>
		<path d="M214.71,49.548c0,9.109-7.407,16.516-16.516,16.516v16.516c18.217,0,33.032-14.815,33.032-33.032H214.71z"/>
	</g>
</g>
<g>
	<g>
		<rect x="140.387" y="90.839" width="16.516" height="16.516"/>
	</g>
</g>
<g>
	<g>
		<rect x="256" y="57.806" width="16.516" height="16.516"/>
	</g>
</g>
<g>
	<g>
		<rect x="222.968" y="165.161" width="16.516" height="16.516"/>
	</g>
</g>
<g>
	<g>
		<rect y="487.226" width="495.484" height="16.516"/>
	</g>
</g>
<g>
	<g>
		<path d="M388.129,404.645h-49.548c-4.567,0-8.258,3.691-8.258,8.258v82.581c0,4.567,3.691,8.258,8.258,8.258h49.548
			c4.567,0,8.258-3.691,8.258-8.258v-82.581C396.387,408.336,392.696,404.645,388.129,404.645z M379.871,487.226h-33.032v-66.065
			h33.032V487.226z"/>
	</g>
</g>
<g>
	<g>
		<path d="M454.194,339.629v-58.855c0-4.567-3.691-8.258-8.258-8.258h-33.032c-4.567,0-8.258,3.691-8.258,8.258v58.855
			c-14.237,3.667-24.774,16.623-24.774,31.984v123.871c0,4.567,3.691,8.258,8.258,8.258h82.581c4.567,0,8.258-3.691,8.258-8.258
			V371.613C478.968,356.253,468.43,343.296,454.194,339.629z M462.452,487.226h-66.065V371.613c0-9.109,7.407-16.516,16.516-16.516
			c4.567,0,8.258-3.691,8.258-8.258v-57.806h16.516v57.806c0,4.567,3.691,8.258,8.258,8.258c9.109,0,16.516,7.408,16.516,16.516
			V487.226z"/>
	</g>
</g>
<g>
	<g>
		<path d="M470.71,379.871h-49.548c-4.567,0-8.258,3.691-8.258,8.258v74.323c0,4.567,3.691,8.258,8.258,8.258h49.548
			c4.567,0,8.258-3.691,8.258-8.258v-74.323C478.968,383.562,475.276,379.871,470.71,379.871z M462.452,454.194h-33.032v-57.806
			h33.032V454.194z"/>
	</g>
</g>
<g>
	<g>
		<path d="M363.355,371.613c-18.217,0-33.032,14.815-33.032,33.032v8.258c0,4.567,3.691,8.258,8.258,8.258h49.548
			c4.567,0,8.258-3.691,8.258-8.258v-8.258C396.387,386.428,381.572,371.613,363.355,371.613z M346.839,404.645
			c0-9.109,7.407-16.516,16.516-16.516c9.109,0,16.516,7.407,16.516,16.516H346.839z"/>
	</g>
</g>
<g>
</g>
<g>
</g>
<g>
</g>
<g>
</g>
<g>
</g>
<g>
</g>
<g>
</g>
<g>
</g>
<g>
</g>
<g>
</g>
<g>
</g>
<g>
</g>
<g>
</g>
<g>
</g>
<g>
</g>
</svg>
